<?xml version="1.0" encoding="UTF-8"?>
<svg width="906pt" height="906pt" version="1.0" viewBox="0 0 906 906" xmlns="http://www.w3.org/2000/svg">
 <g transform="translate(0 906) scale(.1 -.1)">
  <path d="m2575 9004c-46-24-74-54-86-93-7-23-9-142-7-326 3-282 4-291 26-327 24-39 91-78 132-78 45 0 109 40 135 84l25 43v294c0 286-1 295-23 334-41 72-134 105-202 69z"/>
  <path d="m5787 8929c-35.746-87.366-38-539.22-38-689-242.95-7.8635-512.52-1.3672-763-10-76-17-81-30-81-200 0-171 4-181 85-199 61.25-14.7 740.07-8.5516 750-16 0.8063-0.4838 29.519-264.24 9-650-479.37-512.09-1032.1-979.32-1498-1502-15-28-14-82 2-113 23-46 70-60 198-60 76 0 119-4 127-12 9-9 12-84 12-274v-262c538.75-37.863 871.31-342 891-342 2 0 4 161 4 358-1.7205 294.22-38.056 568.9 247 738 264.1 137.96 539.77-6.604 641-206 58-117 58-113 55-1298-2-595 0.9031-1084.8 2-1082 251.66 640.67 356.15 819.1 871 1094 20.694 423.4-5.8145 874.39 3 1295 5 7 53 11 136 11 128 0 130 0 161 28 46 41 51 103 12 157-483.01 485.12-971.63 965.49-1453 1453 0.9393 222.34 3.003 444.67 5 667 235.77 30.969 573.86-35.334 797 22 50 22 60 60 56 209-3 131-4 162.09-31 189.09l-822 9.907c-39.636 141.94 4.0113 575.12-61 685-34 13-294 12-317-1z"/>
  <path d="m1376 8527c-21-12-47-38-57-57-23-42-25-120-4-164 9-18 109-125 223-238 206-204 228-222 292-222 68 0 129 51 151 124 14 45 1 105-31 150-41 57-393 396-428 412-50 24-99 22-146-5z"/>
  <path d="m3760 8535c-19-9-120-100-223-203-216-214-243-253-234-339 6-60 34-106 77-128 37-19 113-19 148-1 15 8 120 108 233 223 221 223 237 245 226 326-14 103-130 165-227 122z"/>
  <path d="m2567 8004c-304.78-33.798-586.92-248.56-679.74-543.98-68.747-193.32-64.161-414.22 32.549-597.55 128.36-268.44 421.7-447.92 718.16-447.58 328.23 1.1904 645.22 219.46 753.78 531.02 108.01 280.44 26.04 619.51-192.75 824.09-144 147.53-345.98 240.77-553.71 236.89-25.961-0.3148-52.796 3.2688-78.29-2.8916z"/>
  <path d="m946 7367c-22-7-57-28-78-48-34-33-38-41-38-88 0-71 21-114 70-148l43-27 245-8c266-8 342-2 399 33 97 60 98 191 3 260-14 11-49 23-79 29-71 13-515 11-565-3z"/>
  <path d="m3760 7367c-50-17-92-44-115-75-30-41-28-136 4-179 43-57 69-62 378-65 269-2 279-2 320 20 22 12 50 33 62 48 60 77 23 201-73 245-37 17-68 19-291 18-163 0-262-5-285-12z"/>
  <path d="m1765 6561c-25-11-120-100-251-232-202-204-212-216-218-261-18-120 89-219 205-188 38 10 71 39 241 208 109 108 205 212 215 231 9 20 19 60 21 89 4 44 0 58-22 92-32 49-60 67-111 75-28 4-52 0-80-14z"/>
  <path d="m3403 6569c-36-10-102-82-104-113-1-12-3-30-3-41-1-11 6-42 16-70 15-42 48-80 205-238 232-233 276-259 366-219 56 25 89 71 95 132 8 88-3 103-234 328-240 234-257 245-341 221z"/>
  <path d="m2596 6240c-16-5-42-22-59-37-55-52-57-67-57-378 0-265 1-289 20-325 54-107 193-120 266-24l29 37 3 304c3 293 2 305-18 341-38 68-117 103-184 82z"/>
  <path d="m4432 4610c-456.83-41.313-862.96-383.41-988.99-823.24-55.576-182.33-40.504-377.05-28.317-564.66 61.828-308.16 250.01-591.11 519.13-756.74 229.21-157.99 519.76-214.1 793.58-180.04 433.19 64.388 807.87 392.18 938.82 808.68 121.35 382.17 42.77 831.76-234.56 1128.3-228.61 264-579.53 411.8-927.9 393.14-23.967-1.1272-47.899-2.9661-71.764-5.4301z"/>
  <path d="m1230 3989c-506.55-230.39-217.9-762.47-30-1104 187-329 424-683 591-880 334.36-393.81 762.39-679.58 1028-834 90-53 146-102 159-141 17.013-43.748 8.3082-1010.3 20-1022 8.5558-8.5558 1209.5-6.68 3117-3l1 430c2 444 7 562 29 605 49.242 95.893 813.82 463.63 1255 1055 253 340 530 806 688 1157 278.82 622.56-254.5 746.87-376 728-299.93-48.739-366.55-427.7-397-448-13.689-13.689-82.368 100.05-174 83-88-16-139-97-191-305-351.07-1381.8-2190.4-1384.6-2485-1376-1114.7 70.332-1704.4 322.8-2097 913-212.89 317.07-193.69 545.2-281 698-58 102-170 114-259 28l-38-37c-87.593 233.23-262.54 553.01-560 453z"/>
 </g>
</svg>
